<?xml version="1.0" encoding="UTF-8" standalone="no"?>
<!-- Created with Inkscape (http://www.inkscape.org/) -->

<svg
   width="100"
   height="100"
   viewBox="0 0 26.458332 26.458334"
   version="1.1"
   id="svg5"
   inkscape:version="1.1.2 (0a00cf5339, 2022-02-04, custom)"
   sodipodi:docname="compte-male.svg"
   xmlns:inkscape="http://www.inkscape.org/namespaces/inkscape"
   xmlns:sodipodi="http://sodipodi.sourceforge.net/DTD/sodipodi-0.dtd"
   xmlns="http://www.w3.org/2000/svg"
   xmlns:svg="http://www.w3.org/2000/svg">
  <sodipodi:namedview
     id="namedview7"
     pagecolor="#ffffff"
     bordercolor="#666666"
     borderopacity="1.0"
     inkscape:pageshadow="2"
     inkscape:pageopacity="0.0"
     inkscape:pagecheckerboard="0"
     inkscape:document-units="mm"
     showgrid="false"
     units="px"
     inkscape:zoom="52.490655"
     inkscape:cx="51.980681"
     inkscape:cy="15.621828"
     inkscape:window-width="1600"
     inkscape:window-height="837"
     inkscape:window-x="-8"
     inkscape:window-y="-8"
     inkscape:window-maximized="1"
     inkscape:current-layer="layer1"
     width="100px" />
  <defs
     id="defs2" />
  <g
     inkscape:label="Calque 1"
     inkscape:groupmode="layer"
     id="layer1">
    <path
       id="path30"
       style="fill:#f8edea;stroke-width:1"
       d="M 13.273519,7.3926155e-5 C 5.9848312,-0.02429233 0.04951859,5.851294 3.0318387e-4,13.139723 -0.04904398,20.428388 5.8066422,26.383794 13.095233,26.457655 c 7.288739,0.07384 13.263958,-5.761932 13.3621,-13.050251 l 0.001,-0.178281 C 26.458374,5.9402548 20.562479,0.02457917 13.273519,7.3926155e-5 Z M 13.269419,1.3229788 c 6.559955,0.022207 11.866091,5.346271 11.866053,11.9061442 l -0.001,0.160712 c -0.04178,2.903719 -1.143385,5.692057 -3.097514,7.840278 -0.01484,-0.02918 -0.02983,-0.05829 -0.04496,-0.08733 -0.03987,-0.07493 -0.0807,-0.149354 -0.122476,-0.22324 -0.04177,-0.0741 -0.0845,-0.147656 -0.128158,-0.220656 -0.04368,-0.07292 -0.0883,-0.145269 -0.133843,-0.217039 -0.04559,-0.07174 -0.09211,-0.142882 -0.139528,-0.213422 -0.04733,-0.07055 -0.09557,-0.140492 -0.144696,-0.209804 -0.04907,-0.06937 -0.09903,-0.138103 -0.149862,-0.206187 -0.05098,-0.06801 -0.102835,-0.135372 -0.155548,-0.202054 -0.05255,-0.06666 -0.105954,-0.132634 -0.160198,-0.197919 -0.05446,-0.06548 -0.109758,-0.130249 -0.165884,-0.194301 -0.05603,-0.06377 -0.112882,-0.126821 -0.170533,-0.189134 -0.0576,-0.06259 -0.115997,-0.124431 -0.175185,-0.185517 -0.05917,-0.06088 -0.119121,-0.121005 -0.179835,-0.180349 -0.06074,-0.05953 -0.122239,-0.11827 -0.184487,-0.176215 -0.06231,-0.05782 -0.125361,-0.114844 -0.189137,-0.171047 -0.06371,-0.05612 -0.128141,-0.111417 -0.193272,-0.165881 -0.06511,-0.05459 -0.130916,-0.108333 -0.197406,-0.161228 -0.06651,-0.05288 -0.133695,-0.104906 -0.20154,-0.156062 -0.06791,-0.05118 -0.136472,-0.101479 -0.205673,-0.150893 -0.06914,-0.0493 -0.138909,-0.0977 -0.209292,-0.14521 -0.07054,-0.04759 -0.141686,-0.09428 -0.213426,-0.140042 -0.07159,-0.04588 -0.143776,-0.09085 -0.216526,-0.134875 -0.07266,-0.04383 -0.145871,-0.08672 -0.219627,-0.128672 -0.07389,-0.04195 -0.148306,-0.08295 -0.223245,-0.122989 -0.07494,-0.04024 -0.150395,-0.07952 -0.226345,-0.117821 -0.076,-0.03819 -0.152488,-0.0754 -0.229445,-0.11162 -0.07689,-0.03613 -0.154238,-0.07127 -0.232029,-0.105419 -0.07777,-0.03425 -0.155985,-0.0675 -0.234613,-0.09974 -0.07866,-0.03219 -0.157734,-0.06337 -0.237197,-0.09353 -0.07938,-0.03013 -0.15914,-0.05924 -0.239265,-0.08733 -0.08009,-0.02825 -0.160541,-0.05547 -0.241331,-0.08165 -0.08098,-0.02602 -0.162292,-0.051 -0.243915,-0.07493 -0.08152,-0.02396 -0.163352,-0.04687 -0.245465,-0.06873 -0.08207,-0.0219 -0.164413,-0.04275 -0.247016,-0.06253 -0.08278,-0.01967 -0.165819,-0.03828 -0.249082,-0.05581 -0.08298,-0.01778 -0.166189,-0.03449 -0.2496,-0.05013 -0.0837,-0.01538 -0.167598,-0.02967 -0.251667,-0.04289 -0.0839,-0.01331 -0.167968,-0.02554 -0.252183,-0.03669 -0.08427,-0.01125 -0.168685,-0.02141 -0.253218,-0.03049 -0.08447,-0.009 -0.169057,-0.01693 -0.253733,-0.02377 -0.08467,-0.0068 -0.169431,-0.01245 -0.25425,-0.01705 -0.08487,-0.0047 -0.169802,-0.0083 -0.254768,-0.01085 -0.0849,-0.0025 -0.16983,-0.0038 -0.254766,-0.0041 -0.2469,-7.7e-4 -0.493744,0.0077 -0.740014,0.02532 -0.246377,0.01752 -0.492013,0.04424 -0.736396,0.0801 -0.24413,0.0359 -0.486836,0.08088 -0.727611,0.134874 -0.241011,0.05394 -0.479925,0.116853 -0.716241,0.188618 -0.236163,0.07188 -0.4695612,0.152557 -0.6997069,0.24185 C 9.412508,16.634901 9.185661,16.732637 8.9626968,16.838733 8.739912,16.944913 8.5211665,17.059368 8.3069167,17.18186 8.0924852,17.304384 7.8827031,17.43487 7.6780088,17.573048 7.4733447,17.711113 7.273905,17.856768 7.0801062,18.009709 6.8864325,18.162841 6.6985423,18.323148 6.5168279,18.490296 6.3350518,18.657323 6.1595727,18.831075 5.990757,19.01119 5.8217681,19.191279 5.6595619,19.377614 5.5044775,19.569807 5.3495251,19.761976 5.2017985,19.95986 5.0616063,20.163047 4.9214136,20.366284 4.7888561,20.574683 4.6642106,20.787809 4.5795307,20.936587 4.4987156,21.087531 4.4218463,21.240491 2.4093823,19.028216 1.3031965,16.139614 1.3232322,13.149025 1.3673271,6.5891954 6.7093248,1.3009062 13.269385,1.3229788 Z m -0.06305,1.6820529 c -0.150952,6.07e-5 -0.482918,0.0075 -0.630974,0.022221 -0.148255,0.014587 -0.474684,0.036395 -0.614439,0.065111 -0.13957,0.028726 -0.303161,0.064206 -0.428918,0.1059358 -0.125677,0.041894 -0.266109,0.097071 -0.373108,0.150377 -0.107254,0.053206 -0.216753,0.1042985 -0.301277,0.1669133 -0.08423,0.062497 -0.173632,0.1506618 -0.232029,0.2201398 -0.05861,0.069645 -0.110153,0.191601 -0.140561,0.2656144 -0.0303,0.073984 0.02417,0.4223419 0.144179,0.5885892 -1.3723975,0.9774862 -2.0190705,2.335199 -2.0303856,3.9780161 -0.01721,2.5509937 2.0322586,4.6353217 4.5832246,4.6611737 0.208366,0.0013 0.41658,-0.01149 0.623224,-0.03824 0.0162,-0.0015 0.03239,-0.003 0.04858,-0.0047 0.199155,-0.02779 0.39629,-0.06853 0.59015,-0.121955 0.02053,-0.0052 0.04103,-0.01054 0.0615,-0.01602 0.188703,-0.05467 0.373736,-0.121294 0.553976,-0.199469 0.02472,-0.01029 0.04936,-0.0208 0.0739,-0.03152 0.174389,-0.07917 0.343698,-0.16909 0.50695,-0.269232 0.02687,-0.01609 0.05357,-0.03246 0.0801,-0.04909 0.15951,-0.102308 0.31259,-0.21431 0.458374,-0.335377 0.02485,-0.02041 0.04948,-0.04109 0.0739,-0.06201 0.143579,-0.124006 0.279401,-0.256719 0.406698,-0.397389 0.02143,-0.02372 0.04262,-0.04767 0.06356,-0.07183 0.124335,-0.142822 0.239793,-0.293136 0.34572,-0.450098 0.01714,-0.02584 0.03402,-0.05185 0.05064,-0.07803 0.10355,-0.160294 0.197091,-0.326836 0.280089,-0.498674 0.01267,-0.0271 0.02507,-0.05431 0.03721,-0.08165 0.08124,-0.176289 0.151315,-0.357513 0.209808,-0.5425988 0.0062,-0.02097 0.01221,-0.04199 0.01809,-0.063039 0.05859,-0.1943593 0.104339,-0.3923605 0.136944,-0.5927237 0.0011,-0.0088 0.0021,-0.01757 0.0031,-0.02636 0.03277,-0.2110541 0.0509,-0.4241242 0.05426,-0.6376813 l 5.17e-4,-0.062529 c -1.79e-4,-0.051346 -0.0012,-0.537279 -0.0031,-0.5885898 -2.91e-4,-0.030322 -8.1e-4,-0.060639 -0.0016,-0.090949 -0.0031,-0.081603 -0.0078,-0.1631022 -0.01395,-0.2444276 -0.006,-0.081345 -0.01363,-0.1625 -0.02274,-0.2433935 -0.0093,-0.080755 -0.02019,-0.1612199 -0.03256,-0.2413269 -0.01227,-0.080326 -0.02605,-0.1602745 -0.04134,-0.2397766 -0.01522,-0.079379 -0.03193,-0.158294 -0.05013,-0.2366759 -0.01834,-0.078439 -0.03815,-0.1563205 -0.05943,-0.2335752 -0.02112,-0.077143 -0.04369,-0.1536451 -0.0677,-0.2294415 -0.02407,-0.075853 -0.04957,-0.1509773 -0.07648,-0.225307 -0.02686,-0.074386 -0.05512,-0.1479587 -0.08475,-0.2206566 -0.02982,-0.072578 -0.06101,-0.1442565 -0.09353,-0.214972 -0.03227,-0.070754 -0.06587,-0.1405375 -0.10077,-0.2092876 -0.03506,-0.068772 -0.07142,-0.1364867 -0.109038,-0.2030868 -0.03769,-0.066611 -0.07663,-0.1320857 -0.11679,-0.1963685 -0.03997,-0.064264 -0.08116,-0.127327 -0.123508,-0.1891341 -0.04243,-0.061927 -0.08602,-0.122578 -0.130743,-0.1818994 -0.04472,-0.059239 -0.09055,-0.1171313 -0.137461,-0.1736313 -0.04701,-0.056377 -0.09509,-0.1113414 -0.144178,-0.1648464 -0.04896,-0.053679 -0.09893,-0.1058855 -0.149863,-0.1565782 -0.05092,-0.050633 -0.10278,-0.099739 -0.155548,-0.1472764 -0.05286,-0.047418 -0.10663,-0.093251 -0.161232,-0.1374582 -0.05448,-0.044364 -0.10979,-0.087095 -0.165882,-0.1281562 -0.05627,-0.040974 -0.1133,-0.080258 -0.171051,-0.1178213 -0.05753,-0.037734 -0.115775,-0.073745 -0.174668,-0.1080028 -0.05898,-0.033986 -0.118602,-0.066206 -0.178802,-0.096634 -0.06025,-0.03058 -0.121078,-0.059354 -0.18242,-0.086299 -0.06136,-0.026995 -0.123213,-0.052152 -0.185519,-0.075447 -0.06229,-0.02323 -0.125009,-0.044596 -0.188104,-0.064078 -0.06305,-0.01946 -0.136795,-0.037036 -0.200507,-0.05271 -0.06364,-0.015684 -0.147717,-0.02947 -0.211875,-0.041341 -0.06423,-0.011914 -0.209285,-0.021908 -0.273888,-0.029972 -0.531586,-0.036716 -0.724255,-0.023297 -0.843845,-0.024756 z"
       sodipodi:nodetypes="ccccccsccccccccccccccccccccccccccccccccccccccccccccccccccccccccccccccssccccccccccccccccccccccccccccccccccccccccccccccccsccccccccccccccccc" />
  </g>
</svg>
