<?xml version="1.0" encoding="UTF-8" standalone="no"?>
<!-- Created with Inkscape (http://www.inkscape.org/) -->

<svg
   width="100"
   height="100"
   viewBox="0 0 26.458332 26.458334"
   version="1.1"
   id="svg5"
   inkscape:version="1.1.2 (0a00cf5339, 2022-02-04, custom)"
   sodipodi:docname="menu.svg"
   xmlns:inkscape="http://www.inkscape.org/namespaces/inkscape"
   xmlns:sodipodi="http://sodipodi.sourceforge.net/DTD/sodipodi-0.dtd"
   xmlns="http://www.w3.org/2000/svg"
   xmlns:svg="http://www.w3.org/2000/svg">
  <sodipodi:namedview
     id="namedview7"
     pagecolor="#ffffff"
     bordercolor="#666666"
     borderopacity="1.0"
     inkscape:pageshadow="2"
     inkscape:pageopacity="0.0"
     inkscape:pagecheckerboard="0"
     inkscape:document-units="mm"
     showgrid="false"
     units="px"
     inkscape:zoom="4.6395623"
     inkscape:cx="48.81926"
     inkscape:cy="46.125041"
     inkscape:window-width="1600"
     inkscape:window-height="837"
     inkscape:window-x="-8"
     inkscape:window-y="-8"
     inkscape:window-maximized="1"
     inkscape:current-layer="layer1"
     width="100px" />
  <defs
     id="defs2" />
  <g
     inkscape:label="Calque 1"
     inkscape:groupmode="layer"
     id="layer1">
    <path
       id="rect1034"
       style="fill:#f8edea;stroke-width:3.16227"
       d="M 50 0 C 47.23 -1.7763568e-15 45 2.2300001 45 5 L 45 45 L 5 45 C 2.2300001 45 0 47.23 0 50 C 5.9211895e-16 52.77 2.2300001 55 5 55 L 45 55 L 45 95 C 45 97.77 47.23 100 50 100 C 52.77 100 55 97.77 55 95 L 55 55 L 95 55 C 97.77 55 100 52.77 100 50 C 100 47.23 97.77 45 95 45 L 55 45 L 55 5 C 55 2.2300001 52.77 0 50 0 z "
       transform="scale(0.26458333)" />
  </g>
</svg>
