<svg xmlns="http://www.w3.org/2000/svg" xmlns:xlink="http://www.w3.org/1999/xlink" width="1500" zoomAndPan="magnify" viewBox="0 0 1125 1124.99995" height="1500" preserveAspectRatio="xMidYMid meet" version="1.0"><defs><clipPath id="id1"><path d="M 480 207.269531 L 646 207.269531 L 646 217 L 480 217 Z M 480 207.269531 " clip-rule="nonzero"/></clipPath><clipPath id="id2"><path d="M 727 567 L 939.800781 567 L 939.800781 578 L 727 578 Z M 727 567 " clip-rule="nonzero"/></clipPath><clipPath id="id3"><path d="M 473 950 L 652 950 L 652 960.269531 L 473 960.269531 Z M 473 950 " clip-rule="nonzero"/></clipPath><clipPath id="id4"><path d="M 727 590 L 939.800781 590 L 939.800781 600 L 727 600 Z M 727 590 " clip-rule="nonzero"/></clipPath><clipPath id="id5"><path d="M 185.300781 590 L 436 590 L 436 600 L 185.300781 600 Z M 185.300781 590 " clip-rule="nonzero"/></clipPath><clipPath id="id6"><path d="M 185.300781 567 L 436 567 L 436 578 L 185.300781 578 Z M 185.300781 567 " clip-rule="nonzero"/></clipPath></defs><path fill="#ffffff" d="M 562.851562 127.148438 C 310.59375 127.148438 106.101562 331.644531 106.101562 583.898438 C 106.101562 836.15625 310.59375 1040.648438 562.851562 1040.648438 C 815.105469 1040.648438 1019.601562 836.15625 1019.601562 583.898438 C 1019.601562 331.644531 815.105469 127.148438 562.851562 127.148438 " fill-opacity="1" fill-rule="nonzero"/><path fill="#000000" d="M 562.523438 1033.214844 C 442.476562 1033.214844 329.4375 986.488281 244.613281 901.484375 C 159.609375 816.660156 112.882812 703.621094 112.882812 583.574219 C 112.882812 463.523438 159.609375 350.484375 244.613281 265.660156 C 329.4375 180.65625 442.476562 133.933594 562.523438 133.933594 C 682.570312 133.933594 795.609375 180.65625 880.433594 265.660156 C 965.4375 350.664062 1012.164062 463.523438 1012.164062 583.574219 C 1012.164062 703.621094 965.4375 816.660156 880.433594 901.484375 C 795.609375 986.488281 682.570312 1033.214844 562.523438 1033.214844 M 562.523438 160.890625 C 449.664062 160.890625 343.453125 204.917969 263.660156 284.710938 C 183.871094 364.503906 139.839844 470.714844 139.839844 583.574219 C 139.839844 696.433594 183.871094 802.640625 263.660156 882.433594 C 343.453125 962.226562 449.664062 1006.257812 562.523438 1006.257812 C 675.382812 1006.257812 781.59375 962.226562 861.386719 882.433594 C 941.175781 802.640625 985.207031 696.433594 985.207031 583.574219 C 985.207031 470.714844 941.175781 364.503906 861.386719 284.710938 C 781.59375 204.917969 675.382812 160.890625 562.523438 160.890625 " fill-opacity="1" fill-rule="nonzero"/><path fill="#ff1616" d="M 727.585938 396.722656 L 889.882812 396.722656 C 888.050781 393.535156 886.175781 390.378906 884.238281 387.253906 L 727.585938 387.253906 L 727.585938 396.722656 " fill-opacity="1" fill-rule="nonzero"/><path fill="#ff1616" d="M 727.585938 351.621094 L 859.429688 351.621094 C 856.910156 348.421875 854.347656 345.265625 851.726562 342.152344 L 727.585938 342.152344 L 727.585938 351.621094 " fill-opacity="1" fill-rule="nonzero"/><path fill="#ff1616" d="M 727.585938 374.175781 L 875.84375 374.175781 C 873.679688 370.980469 871.492188 367.824219 869.242188 364.699219 L 727.585938 364.699219 L 727.585938 374.175781 " fill-opacity="1" fill-rule="nonzero"/><path fill="#ff1616" d="M 727.585938 416.472656 L 727.585938 419.285156 L 901.839844 419.285156 C 900.296875 416.097656 898.695312 412.9375 897.070312 409.800781 L 727.585938 409.800781 L 727.585938 416.472656 " fill-opacity="1" fill-rule="nonzero"/><path fill="#ff1616" d="M 727.585938 509.480469 L 932.394531 509.480469 C 931.75 506.296875 931.0625 503.152344 930.351562 500.011719 L 727.585938 500.011719 L 727.585938 509.480469 " fill-opacity="1" fill-rule="nonzero"/><path fill="#ff1616" d="M 727.585938 441.828125 L 911.960938 441.828125 C 910.648438 438.644531 909.296875 435.5 907.921875 432.355469 L 727.585938 432.355469 L 727.585938 441.828125 " fill-opacity="1" fill-rule="nonzero"/><path fill="#ff1616" d="M 727.585938 486.9375 L 927.101562 486.9375 C 926.269531 483.753906 925.375 480.589844 924.4375 477.445312 L 727.585938 477.445312 L 727.585938 486.9375 " fill-opacity="1" fill-rule="nonzero"/><path fill="#ff1616" d="M 727.585938 532.027344 L 936.226562 532.027344 C 935.789062 528.863281 935.308594 525.699219 934.789062 522.554688 L 727.585938 522.554688 L 727.585938 532.027344 " fill-opacity="1" fill-rule="nonzero"/><path fill="#ff1616" d="M 727.585938 464.371094 L 920.335938 464.371094 C 919.273438 461.207031 918.148438 458.042969 917 454.902344 L 727.585938 454.902344 L 727.585938 464.371094 " fill-opacity="1" fill-rule="nonzero"/><path fill="#ff1616" d="M 707.800781 319.601562 L 293.917969 319.601562 C 290.84375 322.703125 287.835938 325.863281 284.882812 329.070312 L 683.894531 329.070312 L 707.804688 319.601562 " fill-opacity="1" fill-rule="nonzero"/><path fill="#ff1616" d="M 727.585938 329.070312 L 840.226562 329.070312 C 837.269531 325.863281 834.269531 322.703125 831.1875 319.601562 L 727.585938 319.601562 L 727.585938 329.070312 " fill-opacity="1" fill-rule="nonzero"/><path fill="#ff1616" d="M 650.875 342.152344 L 273.378906 342.152344 C 270.765625 345.265625 268.195312 348.421875 265.679688 351.621094 L 626.972656 351.621094 L 650.882812 342.152344 " fill-opacity="1" fill-rule="nonzero"/><path fill="#ff1616" d="M 777.617188 274.5 L 347.488281 274.5 C 343.066406 277.566406 338.726562 280.726562 334.453125 283.972656 L 790.660156 283.972656 C 786.390625 280.726562 782.039062 277.566406 777.621094 274.5 " fill-opacity="1" fill-rule="nonzero"/><path fill="#ff1616" d="M 806.921875 297.050781 L 318.183594 297.050781 C 314.554688 300.140625 310.980469 303.292969 307.46875 306.523438 L 817.621094 306.523438 C 814.125 303.292969 810.539062 300.140625 806.917969 297.050781 " fill-opacity="1" fill-rule="nonzero"/><path fill="#ff1616" d="M 740.835938 251.945312 L 384.269531 251.945312 C 378.644531 254.972656 373.101562 258.128906 367.648438 261.421875 L 757.457031 261.421875 C 752 258.128906 746.457031 254.972656 740.835938 251.945312 " fill-opacity="1" fill-rule="nonzero"/><g clip-path="url(#id1)"><path fill="#ff1616" d="M 562.5625 207.265625 C 534.214844 207.265625 506.597656 210.398438 480.039062 216.320312 L 645.066406 216.320312 C 618.507812 210.398438 590.890625 207.265625 562.5625 207.265625 " fill-opacity="1" fill-rule="nonzero"/></g><path fill="#ff1616" d="M 690.179688 229.398438 L 434.925781 229.398438 C 426.867188 232.292969 418.929688 235.449219 411.140625 238.867188 L 713.984375 238.867188 C 706.175781 235.449219 698.238281 232.292969 690.179688 229.398438 " fill-opacity="1" fill-rule="nonzero"/><path fill="#ff1616" d="M 489.953125 599.679688 L 672.765625 599.679688 L 672.765625 590.207031 L 489.953125 590.207031 Z M 489.953125 599.679688 " fill-opacity="1" fill-rule="nonzero"/><path fill="#ff1616" d="M 489.953125 657.632812 L 489.953125 667.105469 L 564.3125 667.105469 C 565.9375 663.816406 567.894531 660.652344 570.125 657.632812 L 489.953125 657.632812 " fill-opacity="1" fill-rule="nonzero"/><path fill="#ff1616" d="M 489.953125 680.179688 L 489.953125 689.648438 L 558.542969 689.648438 C 558.648438 686.445312 559.0625 683.28125 559.710938 680.179688 L 489.953125 680.179688 " fill-opacity="1" fill-rule="nonzero"/><path fill="#ff1616" d="M 489.953125 702.742188 L 489.953125 712.214844 L 562.667969 712.214844 C 561.398438 709.132812 560.398438 705.992188 559.710938 702.742188 L 489.953125 702.742188 " fill-opacity="1" fill-rule="nonzero"/><path fill="#ff1616" d="M 727.585938 554.570312 L 938.664062 554.570312 C 938.414062 551.40625 938.121094 548.261719 937.808594 545.097656 L 727.585938 545.097656 L 727.585938 554.570312 " fill-opacity="1" fill-rule="nonzero"/><path fill="#ff1616" d="M 489.953125 635.089844 L 489.953125 644.5625 L 582.828125 644.5625 C 587.265625 640.980469 592.222656 637.796875 597.597656 635.089844 L 489.953125 635.089844 " fill-opacity="1" fill-rule="nonzero"/><path fill="#ff1616" d="M 628.046875 757.304688 C 616.96875 755.742188 606.636719 752.472656 597.511719 747.832031 L 489.953125 747.832031 L 489.953125 752.953125 L 489.871094 752.953125 C 489.914062 753.765625 489.953125 754.597656 489.953125 755.429688 C 489.953125 756.054688 489.933594 756.679688 489.914062 757.304688 L 628.046875 757.304688 " fill-opacity="1" fill-rule="nonzero"/><g clip-path="url(#id2)"><path fill="#ff1616" d="M 727.585938 577.136719 L 939.746094 577.136719 C 939.683594 573.972656 939.578125 570.808594 939.453125 567.664062 L 727.585938 567.664062 L 727.585938 577.136719 " fill-opacity="1" fill-rule="nonzero"/></g><path fill="#ff1616" d="M 489.953125 734.757812 L 578.601562 734.757812 C 575.433594 731.804688 572.582031 728.636719 570.101562 725.289062 L 489.953125 725.289062 L 489.953125 734.757812 " fill-opacity="1" fill-rule="nonzero"/><path fill="#ff1616" d="M 489.953125 622.015625 L 672.765625 622.015625 L 672.765625 612.523438 L 489.953125 612.523438 Z M 489.953125 622.015625 " fill-opacity="1" fill-rule="nonzero"/><path fill="#ff1616" d="M 672.765625 486.9375 L 672.765625 477.445312 L 582.078125 477.445312 L 559.460938 486.9375 L 672.765625 486.9375 " fill-opacity="1" fill-rule="nonzero"/><path fill="#ff1616" d="M 489.953125 532.027344 L 672.765625 532.027344 L 672.765625 522.554688 L 489.953125 522.554688 Z M 489.953125 532.027344 " fill-opacity="1" fill-rule="nonzero"/><path fill="#ff1616" d="M 672.765625 509.480469 L 672.765625 500.011719 L 528.257812 500.011719 L 505.660156 509.480469 L 672.765625 509.480469 " fill-opacity="1" fill-rule="nonzero"/><path fill="#ff1616" d="M 489.953125 554.570312 L 672.765625 554.570312 L 672.765625 545.097656 L 489.953125 545.097656 Z M 489.953125 554.570312 " fill-opacity="1" fill-rule="nonzero"/><path fill="#ff1616" d="M 672.765625 464.371094 L 672.765625 454.902344 L 635.878906 454.902344 L 613.28125 464.371094 L 672.765625 464.371094 " fill-opacity="1" fill-rule="nonzero"/><path fill="#ff1616" d="M 489.953125 577.136719 L 672.765625 577.136719 L 672.765625 567.664062 L 489.953125 567.664062 Z M 489.953125 577.136719 " fill-opacity="1" fill-rule="nonzero"/><path fill="#ff1616" d="M 672.765625 441.828125 L 672.765625 439.457031 L 667.101562 441.828125 L 672.765625 441.828125 " fill-opacity="1" fill-rule="nonzero"/><path fill="#ff1616" d="M 593.953125 364.699219 L 255.863281 364.699219 C 253.617188 367.824219 251.421875 370.980469 249.269531 374.175781 L 570.03125 374.175781 L 593.941406 364.699219 " fill-opacity="1" fill-rule="nonzero"/><path fill="#ff1616" d="M 435.113281 500.011719 L 194.753906 500.011719 C 194.042969 503.152344 193.363281 506.296875 192.722656 509.480469 L 435.105469 509.480469 L 435.105469 500.011719 " fill-opacity="1" fill-rule="nonzero"/><path fill="#ff1616" d="M 316.417969 870.066406 L 808.699219 870.066406 C 812.28125 866.964844 815.820312 863.820312 819.277344 860.59375 L 305.8125 860.59375 C 309.292969 863.820312 312.828125 866.964844 316.421875 870.066406 " fill-opacity="1" fill-rule="nonzero"/><g clip-path="url(#id3)"><path fill="#ff1616" d="M 533.570312 960.265625 L 591.535156 960.265625 C 612.050781 958.703125 632.128906 955.496094 651.605469 950.792969 L 473.5 950.792969 C 492.976562 955.496094 513.054688 958.703125 533.570312 960.265625 " fill-opacity="1" fill-rule="nonzero"/></g><path fill="#ff1616" d="M 292.414062 847.523438 L 832.6875 847.523438 C 835.726562 844.398438 838.707031 841.257812 841.621094 838.050781 L 283.480469 838.050781 C 286.40625 841.257812 289.382812 844.398438 292.414062 847.523438 " fill-opacity="1" fill-rule="nonzero"/><path fill="#ff1616" d="M 465.566406 802.414062 L 870.347656 802.414062 C 872.554688 799.289062 874.71875 796.125 876.84375 792.941406 L 475.417969 792.941406 C 472.5 796.332031 469.1875 799.496094 465.566406 802.414062 " fill-opacity="1" fill-rule="nonzero"/><path fill="#ff1616" d="M 430.78125 937.71875 L 694.324219 937.71875 C 702.136719 934.804688 709.820312 931.640625 717.382812 928.25 L 407.722656 928.25 C 415.285156 931.640625 422.96875 934.804688 430.78125 937.71875 " fill-opacity="1" fill-rule="nonzero"/><path fill="#ff1616" d="M 484.121094 779.867188 L 885.175781 779.867188 C 887.070312 776.726562 888.925781 773.582031 890.757812 770.398438 L 487.832031 770.398438 C 486.894531 773.644531 485.644531 776.808594 484.121094 779.867188 " fill-opacity="1" fill-rule="nonzero"/><path fill="#ff1616" d="M 381.472656 915.175781 L 743.617188 915.175781 C 749.160156 912.136719 754.574219 908.972656 759.925781 905.683594 L 365.164062 905.683594 C 370.507812 908.972656 375.945312 912.136719 381.46875 915.175781 " fill-opacity="1" fill-rule="nonzero"/><path fill="#ff1616" d="M 345.320312 892.609375 L 779.78125 892.609375 C 784.132812 889.550781 788.425781 886.386719 792.632812 883.140625 L 332.46875 883.140625 C 336.679688 886.386719 340.964844 889.550781 345.316406 892.609375 " fill-opacity="1" fill-rule="nonzero"/><path fill="#ff1616" d="M 405.410156 822.3125 C 392.0625 822.3125 379.4375 819.855469 368.210938 815.484375 L 264.503906 815.484375 C 266.992188 818.691406 269.527344 821.855469 272.113281 824.957031 L 853 824.957031 C 855.582031 821.855469 858.125 818.691406 860.601562 815.484375 L 442.617188 815.484375 C 431.390625 819.855469 418.765625 822.3125 405.417969 822.3125 " fill-opacity="1" fill-rule="nonzero"/><path fill="#ff1616" d="M 658.0625 757.304688 L 897.839844 757.304688 C 899.464844 754.179688 901.046875 751.015625 902.589844 747.832031 L 688.597656 747.832031 C 679.453125 752.472656 669.121094 755.742188 658.0625 757.304688 " fill-opacity="1" fill-rule="nonzero"/><path fill="#ff1616" d="M 727.585938 667.105469 L 930.6875 667.105469 C 931.394531 663.960938 932.0625 660.796875 932.683594 657.632812 L 727.585938 657.632812 L 727.585938 667.105469 " fill-opacity="1" fill-rule="nonzero"/><path fill="#ff1616" d="M 727.585938 622.015625 L 937.957031 622.015625 C 938.265625 618.851562 938.539062 615.710938 938.765625 612.523438 L 727.585938 612.523438 L 727.585938 622.015625 " fill-opacity="1" fill-rule="nonzero"/><g clip-path="url(#id4)"><path fill="#ff1616" d="M 727.585938 590.207031 L 727.585938 599.679688 L 939.515625 599.679688 C 939.621094 596.535156 939.726562 593.371094 939.765625 590.207031 L 727.585938 590.207031 " fill-opacity="1" fill-rule="nonzero"/></g><path fill="#ff1616" d="M 727.585938 644.5625 L 935.019531 644.5625 C 935.519531 641.417969 935.996094 638.253906 936.414062 635.089844 L 727.585938 635.089844 L 727.585938 644.5625 " fill-opacity="1" fill-rule="nonzero"/><path fill="#ff1616" d="M 727.585938 689.003906 L 727.523438 689.003906 C 727.523438 689.234375 727.523438 689.441406 727.546875 689.648438 L 924.894531 689.648438 C 925.8125 686.527344 926.667969 683.363281 927.5 680.179688 L 727.585938 680.179688 L 727.585938 689.003906 " fill-opacity="1" fill-rule="nonzero"/><path fill="#ff1616" d="M 707.507812 734.757812 L 908.585938 734.757812 C 909.960938 731.617188 911.273438 728.472656 912.566406 725.289062 L 716.007812 725.289062 C 713.507812 728.636719 710.675781 731.804688 707.507812 734.757812 " fill-opacity="1" fill-rule="nonzero"/><path fill="#ff1616" d="M 723.441406 712.214844 L 917.5625 712.214844 C 918.6875 709.070312 919.773438 705.90625 920.835938 702.742188 L 726.398438 702.742188 C 725.691406 705.992188 724.714844 709.132812 723.441406 712.214844 " fill-opacity="1" fill-rule="nonzero"/><path fill="#ff1616" d="M 435.113281 612.523438 L 186.335938 612.523438 C 186.566406 615.710938 186.839844 618.851562 187.152344 622.015625 L 435.117188 622.015625 L 435.117188 612.523438 " fill-opacity="1" fill-rule="nonzero"/><path fill="#ff1616" d="M 435.113281 522.554688 L 190.316406 522.554688 C 189.808594 525.699219 189.328125 528.863281 188.890625 532.027344 L 435.125 532.027344 L 435.125 522.554688 " fill-opacity="1" fill-rule="nonzero"/><g clip-path="url(#id5)"><path fill="#ff1616" d="M 435.113281 590.207031 L 185.339844 590.207031 C 185.386719 593.371094 185.472656 596.535156 185.601562 599.679688 L 435.105469 599.679688 L 435.105469 590.207031 " fill-opacity="1" fill-rule="nonzero"/></g><path fill="#ff1616" d="M 435.113281 545.097656 L 187.296875 545.097656 C 186.980469 548.261719 186.695312 551.40625 186.449219 554.570312 L 435.121094 554.570312 L 435.121094 545.097656 " fill-opacity="1" fill-rule="nonzero"/><g clip-path="url(#id6)"><path fill="#ff1616" d="M 435.113281 567.664062 L 185.652344 567.664062 C 185.519531 570.808594 185.421875 573.972656 185.363281 577.136719 L 435.117188 577.136719 L 435.117188 567.664062 " fill-opacity="1" fill-rule="nonzero"/></g><path fill="#ff1616" d="M 435.113281 477.445312 L 200.667969 477.445312 C 199.730469 480.589844 198.847656 483.753906 198 486.9375 L 435.109375 486.9375 L 435.109375 477.445312 " fill-opacity="1" fill-rule="nonzero"/><path fill="#ff1616" d="M 435.113281 454.902344 L 208.105469 454.902344 C 206.949219 458.042969 205.847656 461.207031 204.78125 464.371094 L 435.125 464.371094 L 435.125 454.902344 " fill-opacity="1" fill-rule="nonzero"/><path fill="#ff1616" d="M 480.082031 409.800781 L 228.058594 409.800781 C 226.410156 412.9375 224.8125 416.097656 223.261719 419.285156 L 456.164062 419.285156 L 480.074219 409.800781 " fill-opacity="1" fill-rule="nonzero"/><path fill="#ff1616" d="M 435.113281 432.355469 L 217.183594 432.355469 C 215.804688 435.5 214.457031 438.644531 213.15625 441.828125 L 435.105469 441.828125 L 435.105469 432.355469 " fill-opacity="1" fill-rule="nonzero"/><path fill="#ff1616" d="M 537.027344 387.253906 L 240.867188 387.253906 C 238.9375 390.378906 237.054688 393.535156 235.222656 396.722656 L 513.117188 396.722656 L 537.027344 387.253906 " fill-opacity="1" fill-rule="nonzero"/><path fill="#ff1616" d="M 353.335938 702.742188 L 204.277344 702.742188 C 205.328125 705.90625 206.417969 709.070312 207.550781 712.214844 L 340.898438 712.214844 C 344.625 708.738281 348.792969 705.554688 353.335938 702.742188 " fill-opacity="1" fill-rule="nonzero"/><path fill="#ff1616" d="M 329.925781 725.289062 L 212.546875 725.289062 C 213.832031 728.472656 215.152344 731.617188 216.519531 734.757812 L 324.992188 734.757812 C 326.335938 731.492188 327.988281 728.328125 329.925781 725.289062 " fill-opacity="1" fill-rule="nonzero"/><path fill="#ff1616" d="M 320.875 755.429688 C 320.875 752.847656 321.066406 750.328125 321.417969 747.832031 L 222.519531 747.832031 C 224.054688 751.015625 225.636719 754.179688 227.257812 757.304688 L 320.910156 757.304688 C 320.886719 756.679688 320.875 756.054688 320.875 755.429688 " fill-opacity="1" fill-rule="nonzero"/><path fill="#ff1616" d="M 335.421875 792.941406 L 248.257812 792.941406 C 250.386719 796.125 252.550781 799.289062 254.773438 802.414062 L 345.261719 802.414062 C 341.632812 799.496094 338.332031 796.332031 335.421875 792.941406 " fill-opacity="1" fill-rule="nonzero"/><path fill="#ff1616" d="M 323.003906 770.398438 L 234.359375 770.398438 C 236.171875 773.582031 238.027344 776.726562 239.925781 779.867188 L 326.699219 779.867188 C 325.183594 776.808594 323.945312 773.644531 323.003906 770.398438 " fill-opacity="1" fill-rule="nonzero"/><path fill="#ff1616" d="M 435.113281 635.089844 L 188.691406 635.089844 C 189.113281 638.253906 189.578125 641.417969 190.085938 644.5625 L 435.109375 644.5625 L 435.109375 635.089844 " fill-opacity="1" fill-rule="nonzero"/><path fill="#ff1616" d="M 405.410156 688.546875 C 410.683594 688.546875 415.828125 688.921875 420.847656 689.648438 L 435.113281 689.648438 L 435.113281 680.179688 L 197.605469 680.179688 C 198.429688 683.363281 199.304688 686.527344 200.214844 689.648438 L 389.976562 689.648438 C 394.976562 688.921875 400.144531 688.546875 405.414062 688.546875 " fill-opacity="1" fill-rule="nonzero"/><path fill="#ff1616" d="M 435.113281 657.632812 L 192.417969 657.632812 C 193.050781 660.796875 193.714844 663.960938 194.417969 667.105469 L 435.113281 667.105469 L 435.113281 657.632812 " fill-opacity="1" fill-rule="nonzero"/></svg>