<?xml version="1.0" encoding="UTF-8" standalone="no"?>
<!-- Created with Inkscape (http://www.inkscape.org/) -->

<svg
   width="500"
   height="500"
   viewBox="0 0 132.29166 132.29167"
   version="1.1"
   id="svg5"
   inkscape:version="1.1.2 (0a00cf5339, 2022-02-04, custom)"
   sodipodi:docname="fond_instruments.svg"
   xmlns:inkscape="http://www.inkscape.org/namespaces/inkscape"
   xmlns:sodipodi="http://sodipodi.sourceforge.net/DTD/sodipodi-0.dtd"
   xmlns="http://www.w3.org/2000/svg"
   xmlns:svg="http://www.w3.org/2000/svg">
  <sodipodi:namedview
     id="namedview7"
     pagecolor="#ffffff"
     bordercolor="#666666"
     borderopacity="1.0"
     inkscape:pageshadow="2"
     inkscape:pageopacity="0.0"
     inkscape:pagecheckerboard="0"
     inkscape:document-units="mm"
     showgrid="false"
     units="px"
     inkscape:zoom="1"
     inkscape:cx="187.5"
     inkscape:cy="227"
     inkscape:window-width="1920"
     inkscape:window-height="1017"
     inkscape:window-x="1592"
     inkscape:window-y="-8"
     inkscape:window-maximized="1"
     inkscape:current-layer="layer1" />
  <defs
     id="defs2" />
  <g
     inkscape:label="Calque 1"
     inkscape:groupmode="layer"
     id="layer1">
    <path
       id="rect34724"
       style="fill:#f2dfd9;fill-opacity:1;stroke-width:1.82418"
       d="m 36.889935,15.803133 c -0.409588,-0.324532 -1.046115,-0.06521 -1.64029,-0.230666 l -0.286561,0.3445 -0.156092,-0.12984 0.194759,-0.234139 a 0.40607039,0.40607039 0 0 0 -0.570342,0.05068 0.40607039,0.40607039 0 0 0 0.04793,0.571159 0.40607039,0.40607039 0 0 0 0.0031,0.0026 l 0.19476,-0.234139 0.156092,0.12984 -0.908882,1.092647 -0.15611,-0.129855 0.19476,-0.234139 a 0.40607039,0.40607039 0 0 0 -0.570344,0.05068 0.40607039,0.40607039 0 0 0 0.04793,0.571158 0.40607039,0.40607039 0 0 0 0.0031,0.0026 l 0.194761,-0.234139 0.156093,0.12984 -0.908881,1.092647 -0.156112,-0.129856 0.19476,-0.234137 a 0.40607039,0.40607039 0 0 0 -0.570344,0.05068 0.40607039,0.40607039 0 0 0 0.04793,0.571157 0.40607039,0.40607039 0 0 0 0.0031,0.0026 l 0.194759,-0.234139 0.156093,0.12984 -0.285547,0.34328 c 0.125098,0.21464 0.16603,0.465577 0.201497,0.710241 l -5.485242,6.594295 -0.936553,-0.779041 c -0.07427,-0.06177 -0.152846,-0.118161 -0.235137,-0.168759 -0.08243,-0.0506 -0.168414,-0.0952 -0.257237,-0.133508 -0.08859,-0.03846 -0.179796,-0.07054 -0.272945,-0.09601 -0.09337,-0.02546 -0.188434,-0.04422 -0.284479,-0.05611 -0.09591,-0.01166 -0.192526,-0.01659 -0.289116,-0.01458 -0.09694,0.002 -0.193612,0.01074 -0.289284,0.02657 -0.09535,0.01559 -0.189473,0.03797 -0.281631,0.06696 -0.09227,0.02919 -0.182336,0.06493 -0.269505,0.106972 -0.08694,0.04201 -0.170794,0.09018 -0.250896,0.144114 -0.08036,0.05385 -0.203536,0.155961 -0.275399,0.220707 -0.07164,0.06477 -0.138696,0.13449 -0.200475,0.208754 -0.06177,0.07427 -0.193038,0.220549 -0.243683,0.302793 -0.0506,0.08243 -0.119143,0.183574 -0.157463,0.272385 -0.03846,0.08859 -0.102414,0.188358 -0.239049,0.44489 -0.163608,0.238831 -0.202274,0.311236 -0.311016,0.483027 -0.313976,0.420129 -0.413181,0.546902 -0.751278,0.889498 -0.47682,0.386295 -0.585579,0.463617 -0.816503,0.608286 l -3.908031,2.494346 -0.120279,0.07017 -0.112758,0.0661 c -0.123717,0.06687 -0.243879,0.140123 -0.359986,0.219463 -0.144651,0.10243 -0.282446,0.214228 -0.41249,0.334663 -0.130147,0.120217 -0.252284,0.248816 -0.365632,0.384985 -0.11325,0.136256 -0.217509,0.279725 -0.311971,0.429621 -0.09474,0.149807 -0.179579,0.305645 -0.253956,0.466532 -0.07404,0.161057 -0.137468,0.326781 -0.189855,0.496124 -0.05269,0.169291 -0.09422,0.341858 -0.124346,0.516579 -0.03007,0.174698 -0.04867,0.351173 -0.05568,0.528298 -0.0068,0.177086 -0.002,0.35442 0.01443,0.530874 0.01602,0.176492 0.04359,0.351734 0.08252,0.524619 0.03915,0.172887 0.08957,0.343027 0.150943,0.509325 0.06144,0.166312 0.133693,0.328432 0.216323,0.485303 0.08234,0.156974 0.174891,0.308376 0.277021,0.453261 0.10243,0.144651 0.214224,0.282442 0.33466,0.412487 0.120217,0.130147 0.248817,0.252286 0.384985,0.365633 l 1.352862,1.191351 1.417778,1.113312 c 0.13624,0.113249 0.279726,0.217508 0.429622,0.311971 0.149808,0.09474 0.305645,0.179579 0.466532,0.253956 0.161057,0.07404 0.32678,0.137468 0.496125,0.189855 0.169291,0.05269 0.341857,0.09422 0.51658,0.124331 0.174698,0.03006 0.351168,0.04867 0.528296,0.05568 0.177084,0.0068 0.354414,0.002 0.530874,-0.01443 0.176493,-0.01604 0.351734,-0.04359 0.524619,-0.08252 0.172887,-0.03915 0.343024,-0.08957 0.509325,-0.150958 0.166313,-0.06144 0.328433,-0.133693 0.485302,-0.216323 0.156973,-0.08234 0.308377,-0.174893 0.453261,-0.277021 0.14465,-0.10243 0.282444,-0.214226 0.412488,-0.334661 0.130193,-0.120171 0.252286,-0.248816 0.365632,-0.384984 0.11325,-0.13624 0.217509,-0.279726 0.311971,-0.429622 0.09474,-0.149808 0.179577,-0.305645 0.253956,-0.466532 0.05688,-0.128612 0.107018,-0.260102 0.150252,-0.393931 l 0.04448,-0.122919 0.0471,-0.131053 1.741032,-4.296893 c 0.100189,-0.253409 0.156422,-0.374428 0.44944,-0.913613 0.275291,-0.394839 0.381916,-0.515438 0.737826,-0.900686 0.149101,-0.13822 0.213283,-0.189401 0.418319,-0.393774 0.227364,-0.181056 0.313831,-0.262111 0.393924,-0.316061 0.08036,-0.05385 0.167319,-0.139663 0.239159,-0.204428 0.07164,-0.06478 0.191583,-0.220481 0.253359,-0.294746 0.06179,-0.07425 0.118283,-0.152754 0.168758,-0.235135 0.0506,-0.08243 0.128551,-0.22217 0.166871,-0.310983 0.03846,-0.08859 0.07054,-0.179796 0.09601,-0.272942 0.02546,-0.09338 0.04422,-0.188437 0.05611,-0.284481 0.01166,-0.09591 0.01661,-0.192515 0.01458,-0.289117 -0.002,-0.09694 -0.01074,-0.193612 -0.02657,-0.289283 -0.01559,-0.09535 -0.03797,-0.189474 -0.06696,-0.28163 -0.02919,-0.09227 -0.06494,-0.182338 -0.106972,-0.269506 -0.04202,-0.08696 -0.09018,-0.170794 -0.144114,-0.250897 -0.05385,-0.08036 -0.113372,-0.156768 -0.178113,-0.228629 -0.06477,-0.07164 -0.13449,-0.138696 -0.208752,-0.200475 l -0.936555,-0.779039 5.485241,-6.594295 c 0.247033,-0.0097 0.501225,-0.01519 0.735057,0.0688 l 0.285547,-0.343282 0.156093,0.12984 -0.194759,0.234139 a 0.40607039,0.40607039 0 0 0 0.0031,0.0026 0.40607039,0.40607039 0 0 0 0.570369,-0.05685 0.40607039,0.40607039 0 0 0 -0.05402,-0.570035 l -0.194758,0.234137 -0.156094,-0.12984 0.908881,-1.092647 0.156094,0.12984 -0.194762,0.234139 a 0.40607039,0.40607039 0 0 0 0.0031,0.0026 0.40607039,0.40607039 0 0 0 0.570338,-0.05688 0.40607039,0.40607039 0 0 0 -0.05402,-0.570035 l -0.194762,0.234139 -0.15611,-0.129855 0.908881,-1.092649 0.156093,0.12984 -0.194761,0.234139 a 0.40607039,0.40607039 0 0 0 0.0031,0.0026 0.40607039,0.40607039 0 0 0 0.570338,-0.05686 0.40607039,0.40607039 0 0 0 -0.05402,-0.570036 l -0.194759,0.234139 -0.156112,-0.129855 0.28656,-0.3445 c -0.270879,-0.554114 -0.131804,-1.227207 -0.52549,-1.570864 -0.0031,-0.0028 -0.0066,-0.0055 -0.0098,-0.0081 -0.0032,-0.0026 -0.0066,-0.0055 -0.0098,-0.0081 z m -1.549137,0.295975 a 0.2030352,0.2030352 0 0 1 0.02565,0.285425 l -0.0015,0.0018 a 0.2030352,0.2030352 0 0 1 -0.286241,0.0229 0.2030352,0.2030352 0 0 1 -0.0234,-0.28563 0.2030352,0.2030352 0 0 1 0.285529,-0.02453 z m 1.559705,1.297388 a 0.2030352,0.2030352 0 0 1 0.02787,0.285221 0.2030352,0.2030352 0 0 1 -0.285117,0.02899 0.2030352,0.2030352 0 0 1 -0.02961,-0.285625 l 0.0015,-0.0018 a 0.2030352,0.2030352 0 0 1 0.285323,-0.02675 z m -2.598425,-0.04865 a 0.2030352,0.2030352 0 0 1 0.02565,0.285425 l -0.0015,0.0018 a 0.2030352,0.2030352 0 0 1 -0.286239,0.0229 0.2030352,0.2030352 0 0 1 -0.0234,-0.285632 0.2030352,0.2030352 0 0 1 0.285528,-0.02453 z m 1.559703,1.297387 a 0.2030352,0.2030352 0 0 1 0.02787,0.285219 0.2030352,0.2030352 0 0 1 -0.285117,0.02899 0.2030352,0.2030352 0 0 1 -0.0296,-0.285624 l 0.0015,-0.0018 a 0.2030352,0.2030352 0 0 1 0.285323,-0.02677 z m -2.598425,-0.04865 a 0.2030352,0.2030352 0 0 1 0.02565,0.285426 l -0.0015,0.0018 a 0.2030352,0.2030352 0 0 1 -0.28624,0.0229 0.2030352,0.2030352 0 0 1 -0.0234,-0.285632 0.2030352,0.2030352 0 0 1 0.285529,-0.02453 z m 1.559704,1.297386 a 0.2030352,0.2030352 0 0 1 0.02787,0.28522 0.2030352,0.2030352 0 0 1 -0.285119,0.02899 0.2030352,0.2030352 0 0 1 -0.02961,-0.285626 l 0.0015,-0.0018 a 0.2030352,0.2030352 0 0 1 0.285325,-0.02677 z m -8.954904,9.189184 a 1.8273167,1.8273167 0 0 1 0.23139,2.569335 l -0.01572,0.01891 a 1.8273167,1.8273167 0 0 1 -2.571693,0.205703 1.8273167,1.8273167 0 0 1 -0.214132,-2.571483 1.8273167,1.8273167 0 0 1 2.570157,-0.222458 z m -0.260861,0.311205 a 1.4212465,1.4212465 0 0 0 -1.999099,0.173404 1.4212465,1.4212465 0 0 0 0.166704,1.999716 1.4212465,1.4212465 0 0 0 2.000329,-0.160002 l 0.01213,-0.01458 A 1.4212465,1.4212465 0 0 0 25.60726,29.394331 Z m -0.260861,0.311202 a 1.0151761,1.0151761 0 0 1 0.128828,1.427635 l -0.0086,0.01044 a 1.0151761,1.0151761 0 0 1 -1.428968,0.114309 1.0151761,1.0151761 0 0 1 -0.118775,-1.428556 1.0151761,1.0151761 0 0 1 1.427538,-0.123747 z m -6.886808,5.099358 3.121847,2.596803 -0.519361,0.624369 -3.121847,-2.596803 z" />
    <path
       style="fill:#f2dfd9;fill-opacity:1;stroke-width:4.49227"
       d="m 20.619141,27.408203 a 4.9999995,4.9999995 0 0 0 0.0918,0.158203 c -0.0194,-0.03488 -0.03832,-0.06907 -0.05859,-0.103515 -0.01073,-0.01822 -0.02223,-0.03657 -0.0332,-0.05469 z"
       transform="scale(0.26458333)"
       id="path36847" />
    <path
       id="rect31"
       style="fill:#f2dfd9;fill-opacity:1;stroke-width:0.144176"
       d="m 91.391223,33.879326 a 5.2916663,5.2916663 0 0 0 -0.360845,-0.162163 5.2916663,5.2916663 0 0 0 -0.371844,-0.135326 5.2916663,5.2916663 0 0 0 -0.381455,-0.106629 5.2916663,5.2916663 0 0 0 -0.387597,-0.07795 5.2916663,5.2916663 0 0 0 -0.392814,-0.04882 5.2916663,5.2916663 0 0 0 -0.395256,-0.01946 5.2916663,5.2916663 0 0 0 -0.395618,0.01036 5.2916663,5.2916663 0 0 0 -0.393437,0.0397 5.2916663,5.2916663 0 0 0 -0.390104,0.06904 5.2916663,5.2916663 0 0 0 -0.3833,0.09836 5.2916663,5.2916663 0 0 0 -0.374656,0.126299 5.2916663,5.2916663 0 0 0 -0.364625,0.153767 5.2916663,5.2916663 0 0 0 -0.352282,0.181226 5.2916663,5.2916663 0 0 0 -0.337176,0.206597 5.2916663,5.2916663 0 0 0 -0.321144,0.231271 5.2916663,5.2916663 0 0 0 -0.302808,0.254782 5.2916663,5.2916663 0 0 0 -0.283089,0.276669 5.2916663,5.2916663 0 0 0 -0.261299,0.296702 5.2916663,5.2916663 0 0 0 -0.239049,0.315806 5.2916663,5.2916663 0 0 0 -0.214025,0.332827 5.2916663,5.2916663 0 0 0 -0.189024,0.347529 l -4.700859,9.482026 14.223046,7.05129 2.33344,-4.706753 a 2.6458332,2.6458332 0 0 0 0.017,-0.03426 2.6458332,2.6458332 0 0 0 0.0294,-0.06156 2.6458332,2.6458332 0 0 0 0.028,-0.06227 2.6458332,2.6458332 0 0 0 0.0264,-0.06248 2.6458332,2.6458332 0 0 0 0.0245,-0.06341 2.6458332,2.6458332 0 0 0 0.0231,-0.06412 2.6458332,2.6458332 0 0 0 0.0213,-0.06501 2.6458332,2.6458332 0 0 0 0.0196,-0.06524 2.6458332,2.6458332 0 0 0 0.018,-0.06546 2.6458332,2.6458332 0 0 0 0.0162,-0.06638 2.6458332,2.6458332 0 0 0 0.0146,-0.06661 2.6458332,2.6458332 0 0 0 0.0129,-0.06684 2.6458332,2.6458332 0 0 0 0.0109,-0.06728 2.6458332,2.6458332 0 0 0 0.01,-0.06728 2.6458332,2.6458332 0 0 0 0.008,-0.06774 2.6458332,2.6458332 0 0 0 0.006,-0.06797 2.6458332,2.6458332 0 0 0 0.004,-0.06773 2.6458332,2.6458332 0 0 0 0.002,-0.06818 2.6458332,2.6458332 0 0 0 9.2e-4,-0.06819 2.6458332,2.6458332 0 0 0 -0.001,-0.06817 2.6458332,2.6458332 0 0 0 -0.002,-0.06816 2.6458332,2.6458332 0 0 0 -0.005,-0.06816 2.6458332,2.6458332 0 0 0 -0.006,-0.0677 2.6458332,2.6458332 0 0 0 -0.008,-0.06745 2.6458332,2.6458332 0 0 0 -0.01,-0.06769 2.6458332,2.6458332 0 0 0 -0.0118,-0.06698 2.6458332,2.6458332 0 0 0 -0.0129,-0.06698 2.6458332,2.6458332 0 0 0 -0.015,-0.06628 2.6458332,2.6458332 0 0 0 -0.0169,-0.06604 2.6458332,2.6458332 0 0 0 -0.0187,-0.0658 2.6458332,2.6458332 0 0 0 -0.0199,-0.06464 2.6458332,2.6458332 0 0 0 -0.022,-0.0651 2.6458332,2.6458332 0 0 0 -0.0233,-0.06347 2.6458332,2.6458332 0 0 0 -0.0249,-0.0637 2.6458332,2.6458332 0 0 0 -0.0266,-0.06277 2.6458332,2.6458332 0 0 0 -0.0282,-0.06184 2.6458332,2.6458332 0 0 0 -0.0303,-0.06114 2.6458332,2.6458332 0 0 0 -0.0312,-0.06045 2.6458332,2.6458332 0 0 0 -0.0332,-0.05975 2.6458332,2.6458332 0 0 0 -0.0344,-0.05859 2.6458332,2.6458332 0 0 0 -0.036,-0.05766 2.6458332,2.6458332 0 0 0 -0.0374,-0.05718 2.6458332,2.6458332 0 0 0 -0.0392,-0.05579 2.6458332,2.6458332 0 0 0 -0.0402,-0.0551 2.6458332,2.6458332 0 0 0 -0.042,-0.05371 2.6458332,2.6458332 0 0 0 -0.0429,-0.05301 2.6458332,2.6458332 0 0 0 -0.0443,-0.05139 2.6458332,2.6458332 0 0 0 -0.0459,-0.05045 2.6458332,2.6458332 0 0 0 -0.0471,-0.04929 2.6458332,2.6458332 0 0 0 -0.0485,-0.04768 2.6458332,2.6458332 0 0 0 -0.0494,-0.04697 2.6458332,2.6458332 0 0 0 -0.0508,-0.04536 2.6458332,2.6458332 0 0 0 -0.0519,-0.0442 2.6458332,2.6458332 0 0 0 -0.0531,-0.04304 2.6458332,2.6458332 0 0 0 -0.054,-0.04118 2.6458332,2.6458332 0 0 0 -0.0551,-0.04003 2.6458332,2.6458332 0 0 0 -0.0563,-0.03885 2.6458332,2.6458332 0 0 0 -0.0572,-0.03706 2.6458332,2.6458332 0 0 0 -0.0579,-0.03562 2.6458332,2.6458332 0 0 0 -0.0588,-0.03374 2.6458332,2.6458332 0 0 0 -0.06,-0.03263 2.6458332,2.6458332 0 0 0 -0.0607,-0.03119 2.6458331,2.6458331 0 0 1 -0.17412,-0.09436 2.6458331,2.6458331 0 0 1 -0.16607,-0.107131 2.6458331,2.6458331 0 0 1 -0.15779,-0.119177 2.6458331,2.6458331 0 0 1 -0.14858,-0.130764 2.6458331,2.6458331 0 0 1 -0.13845,-0.141892 2.6458331,2.6458331 0 0 1 -0.12693,-0.15117 2.6458331,2.6458331 0 0 1 -0.11587,-0.160686 2.6458331,2.6458331 0 0 1 -0.10318,-0.168819 2.6458331,2.6458331 0 0 1 -0.0905,-0.175796 2.6458331,2.6458331 0 0 1 -0.0769,-0.182312 2.6458331,2.6458331 0 0 1 -0.0633,-0.187674 2.6458331,2.6458331 0 0 1 -0.0492,-0.19165 2.6458331,2.6458331 0 0 1 -0.0344,-0.194706 2.6458331,2.6458331 0 0 1 -0.0201,-0.196834 2.6458331,2.6458331 0 0 1 -0.005,-0.198039 2.6458331,2.6458331 0 0 1 0.009,-0.197163 2.6458331,2.6458331 0 0 1 0.0243,-0.196754 2.6458331,2.6458331 0 0 1 0.0391,-0.19403 2.6458331,2.6458331 0 0 1 0.0534,-0.190381 2.6458331,2.6458331 0 0 1 0.0673,-0.185805 2.6458331,2.6458331 0 0 1 0.0815,-0.180523 5.2916663,5.2916663 0 0 0 0.0593,-0.122896 5.2916663,5.2916663 0 0 0 0.0553,-0.124298 5.2916663,5.2916663 0 0 0 0.0525,-0.125675 5.2916663,5.2916663 0 0 0 0.0497,-0.127043 5.2916663,5.2916663 0 0 0 0.0458,-0.128419 5.2916663,5.2916663 0 0 0 0.0428,-0.129333 5.2916663,5.2916663 0 0 0 0.0393,-0.130478 5.2916663,5.2916663 0 0 0 0.0358,-0.131618 5.2916663,5.2916663 0 0 0 0.0326,-0.132074 5.2916663,5.2916663 0 0 0 0.0291,-0.133215 5.2916663,5.2916663 0 0 0 0.0259,-0.133666 5.2916663,5.2916663 0 0 0 0.0222,-0.134346 5.2916663,5.2916663 0 0 0 0.019,-0.134798 5.2916663,5.2916663 0 0 0 0.0153,-0.135481 5.2916663,5.2916663 0 0 0 0.012,-0.135931 5.2916663,5.2916663 0 0 0 0.008,-0.13615 5.2916663,5.2916663 0 0 0 0.005,-0.136137 5.2916663,5.2916663 0 0 0 0.002,-0.135895 5.2916663,5.2916663 0 0 0 -0.002,-0.136577 5.2916663,5.2916663 0 0 0 -0.006,-0.136102 5.2916663,5.2916663 0 0 0 -0.01,-0.135627 5.2916663,5.2916663 0 0 0 -0.0127,-0.136078 5.2916663,5.2916663 0 0 0 -0.0162,-0.134909 5.2916663,5.2916663 0 0 0 -0.0196,-0.134901 5.2916663,5.2916663 0 0 0 -0.0233,-0.134421 5.2916663,5.2916663 0 0 0 -0.0266,-0.133721 5.2916663,5.2916663 0 0 0 -0.0298,-0.133014 5.2916663,5.2916663 0 0 0 -0.0333,-0.13185 5.2916663,5.2916663 0 0 0 -0.037,-0.131375 5.2916663,5.2916663 0 0 0 -0.0404,-0.130204 5.2916663,5.2916663 0 0 0 -0.0434,-0.128812 5.2916663,5.2916663 0 0 0 -0.0467,-0.128103 5.2916663,5.2916663 0 0 0 -0.0501,-0.126941 5.2916663,5.2916663 0 0 0 -0.0534,-0.125081 5.2916663,5.2916663 0 0 0 -0.0568,-0.123908 5.2916663,5.2916663 0 0 0 -0.0598,-0.122514 5.2916663,5.2916663 0 0 0 -0.0628,-0.121113 5.2916663,5.2916663 0 0 0 -0.066,-0.119262 5.2916663,5.2916663 0 0 0 -0.0688,-0.117165 5.2916663,5.2916663 0 0 0 -0.0723,-0.116 5.2916663,5.2916663 0 0 0 -0.0746,-0.113683 5.2916663,5.2916663 0 0 0 -0.0778,-0.111822 5.2916663,5.2916663 0 0 0 -0.081,-0.109964 5.2916663,5.2916663 0 0 0 -0.0836,-0.107179 5.2916663,5.2916663 0 0 0 -0.0861,-0.105557 5.2916663,5.2916663 0 0 0 -0.0889,-0.103467 5.2916663,5.2916663 0 0 0 -0.0919,-0.100913 5.2916663,5.2916663 0 0 0 -0.0942,-0.09859 5.2916663,5.2916663 0 0 0 -0.0967,-0.09581 5.2916663,5.2916663 0 0 0 -0.099,-0.09349 5.2916663,5.2916663 0 0 0 -0.10153,-0.09071 5.2916663,5.2916663 0 0 0 -0.10384,-0.08839 5.2916663,5.2916663 0 0 0 -0.105903,-0.08538 5.2916663,5.2916663 0 0 0 -0.108206,-0.08307 5.2916663,5.2916663 0 0 0 -0.110277,-0.08005 5.2916663,5.2916663 0 0 0 -0.112348,-0.07704 5.2916663,5.2916663 0 0 0 -0.114188,-0.07449 5.2916663,5.2916663 0 0 0 -0.116485,-0.07102 5.2916663,5.2916663 0 0 0 -0.117857,-0.06825 5.2916663,5.2916663 0 0 0 -0.119235,-0.06547 5.2916663,5.2916663 0 0 0 -0.121563,-0.06194 z m -9.083286,8.195316 1.066728,0.528847 -1.175216,2.370507 0.711153,0.352565 1.175215,-2.370508 0.711152,0.352565 -1.175215,2.370507 0.711152,0.352565 1.175215,-2.370508 1.422304,0.705129 -1.175215,2.370508 0.711152,0.352564 1.175215,-2.370507 0.711153,0.352564 -1.175216,2.370508 0.711152,0.352564 1.175216,-2.370507 0.711152,0.352564 -1.175216,2.370508 0.711153,0.352564 1.175215,-2.370507 1.422304,0.705129 -1.175215,2.370507 0.711152,0.352565 1.175216,-2.370508 0.59263,0.293804 -1.17522,2.370507 0.82968,0.411326 1.17521,-2.370508 1.06673,0.528847 -1.6453,3.31871 -12.800738,-6.346161 z" />
    <g
       id="g6644"
       transform="rotate(11.874372,-277.24871,255.96807)">
      <path
         id="rect3665"
         style="fill:#f2dfd9;fill-opacity:1;stroke-width:0.722222"
         d="M 1,10 V 50 H 6.5 V 10 Z m 2.75,1 A 1.75,1.75 0 0 1 5.5,12.75 1.75,1.75 0 0 1 3.75,14.5 1.75,1.75 0 0 1 2,12.75 1.75,1.75 0 0 1 3.75,11 Z m 0,34.5 A 1.75,1.75 0 0 1 5.5,47.25 1.75,1.75 0 0 1 3.75,49 1.75,1.75 0 0 1 2,47.25 1.75,1.75 0 0 1 3.75,45.5 Z"
         transform="scale(0.26458333)" />
      <path
         id="rect3665-9"
         style="fill:#f2dfd9;fill-opacity:1;stroke-width:0.703937"
         d="M 8.5,11 V 49 H 14 V 11 Z m 2.75,1 A 1.75,1.75 0 0 1 13,13.75 1.75,1.75 0 0 1 11.25,15.5 1.75,1.75 0 0 1 9.5,13.75 1.75,1.75 0 0 1 11.25,12 Z m 0,32.5 A 1.75,1.75 0 0 1 13,46.25 1.75,1.75 0 0 1 11.25,48 1.75,1.75 0 0 1 9.5,46.25 1.75,1.75 0 0 1 11.25,44.5 Z"
         transform="scale(0.26458333)" />
      <path
         id="rect3665-9-2"
         style="fill:#f2dfd9;fill-opacity:1;stroke-width:0.68516"
         d="m 16,12 v 36 h 5.5 V 12 Z m 2.75,1 A 1.75,1.75 0 0 1 20.5,14.75 1.75,1.75 0 0 1 18.75,16.5 1.75,1.75 0 0 1 17,14.75 1.75,1.75 0 0 1 18.75,13 Z m 0,30.5 A 1.75,1.75 0 0 1 20.5,45.25 1.75,1.75 0 0 1 18.75,47 1.75,1.75 0 0 1 17,45.25 1.75,1.75 0 0 1 18.75,43.5 Z"
         transform="scale(0.26458333)" />
      <path
         id="rect3665-9-2-7"
         style="fill:#f2dfd9;fill-opacity:1;stroke-width:0.665855"
         d="M 23.5,13 V 47 H 29 V 13 Z m 2.75,1 A 1.75,1.75 0 0 1 28,15.75 1.75,1.75 0 0 1 26.25,17.5 1.75,1.75 0 0 1 24.5,15.75 1.75,1.75 0 0 1 26.25,14 Z m 0,28.5 A 1.75,1.75 0 0 1 28,44.25 1.75,1.75 0 0 1 26.25,46 1.75,1.75 0 0 1 24.5,44.25 1.75,1.75 0 0 1 26.25,42.5 Z"
         transform="scale(0.26458333)" />
      <path
         id="rect3665-9-2-7-8"
         style="fill:#f2dfd9;fill-opacity:1;stroke-width:0.645974"
         d="m 31,14 v 32 h 5.5 V 14 Z m 2.75,1 A 1.75,1.75 0 0 1 35.5,16.75 1.75,1.75 0 0 1 33.75,18.5 1.75,1.75 0 0 1 32,16.75 1.75,1.75 0 0 1 33.75,15 Z m 0,26.5 A 1.75,1.75 0 0 1 35.5,43.25 1.75,1.75 0 0 1 33.75,45 1.75,1.75 0 0 1 32,43.25 1.75,1.75 0 0 1 33.75,41.5 Z"
         transform="scale(0.26458333)" />
      <path
         id="rect3665-9-2-7-8-6"
         style="fill:#f2dfd9;fill-opacity:1;stroke-width:0.625463"
         d="M 38.5,15 V 45 H 44 V 15 Z m 2.75,1 A 1.75,1.75 0 0 1 43,17.75 1.75,1.75 0 0 1 41.25,19.5 1.75,1.75 0 0 1 39.5,17.75 1.75,1.75 0 0 1 41.25,16 Z m 0,24.5 A 1.75,1.75 0 0 1 43,42.25 1.75,1.75 0 0 1 41.25,44 1.75,1.75 0 0 1 39.5,42.25 1.75,1.75 0 0 1 41.25,40.5 Z"
         transform="scale(0.26458333)" />
      <path
         id="rect3665-9-2-7-8-6-3"
         style="fill:#f2dfd9;fill-opacity:1;stroke-width:0.604256"
         d="m 46,16 v 28 h 5.5 V 16 Z m 2.75,1 A 1.75,1.75 0 0 1 50.5,18.75 1.75,1.75 0 0 1 48.75,20.5 1.75,1.75 0 0 1 47,18.75 1.75,1.75 0 0 1 48.75,17 Z m 0,22.5 A 1.75,1.75 0 0 1 50.5,41.25 1.75,1.75 0 0 1 48.75,43 1.75,1.75 0 0 1 47,41.25 1.75,1.75 0 0 1 48.75,39.5 Z"
         transform="scale(0.26458333)" />
      <path
         id="rect3665-9-2-7-8-6-3-3"
         style="fill:#f2dfd9;fill-opacity:1;stroke-width:0.582274"
         d="M 53.5,17 V 43 H 59 V 17 Z m 2.75,1 A 1.75,1.75 0 0 1 58,19.75 1.75,1.75 0 0 1 56.25,21.5 1.75,1.75 0 0 1 54.5,19.75 1.75,1.75 0 0 1 56.25,18 Z m 0,20.5 A 1.75,1.75 0 0 1 58,40.25 1.75,1.75 0 0 1 56.25,42 1.75,1.75 0 0 1 54.5,40.25 1.75,1.75 0 0 1 56.25,38.5 Z"
         transform="scale(0.26458333)" />
      <path
         id="path6211"
         style="fill:#f2dfd9;fill-opacity:1;stroke-width:0.23737"
         d="M 3.9017282,0.75680528 A 0.6614583,0.6614583 0 0 0 3.180248,1.3522216 0.6614583,0.6614583 0 0 0 3.7756643,2.0737018 0.6614583,0.6614583 0 0 0 4.4163751,1.7363465 L 12.76838,2.5358676 12.818805,2.009109 4.4673151,1.2096371 A 0.6614583,0.6614583 0 0 0 3.9017282,0.75680528 Z" />
      <path
         id="path6211-5"
         style="fill:#f2dfd9;fill-opacity:1;stroke-width:0.23737"
         d="m 15.233757,13.564553 a 0.6614583,0.6614583 0 0 0 0.515205,-0.78078 0.6614583,0.6614583 0 0 0 -0.780781,-0.515205 0.6614583,0.6614583 0 0 0 -0.513645,0.510379 l -8.2193822,1.68433 0.1062258,0.518394 8.2188754,-1.684225 a 0.6614583,0.6614583 0 0 0 0.673502,0.267107 z" />
    </g>
    <g
       id="g10089"
       transform="rotate(-12.994075,490.14633,-246.80971)">
      <path
         id="path7539"
         style="fill:#f2dfd9;fill-opacity:1;stroke-width:1.15442"
         d="m 0,48 v 2 A 30,9.9999996 0 0 0 30,60 30,9.9999996 0 0 0 60,50 v -2 a 30,9.9999997 0 0 1 -0.06445,0.654297 30,9.9999997 0 0 1 -0.191406,0.650391 30,9.9999997 0 0 1 -0.320313,0.646484 30,9.9999997 0 0 1 -0.445312,0.636719 30,9.9999997 0 0 1 -0.570313,0.626953 A 30,9.9999997 0 0 1 57.7168,51.826172 30,9.9999997 0 0 1 56.90625,52.423828 30,9.9999997 0 0 1 55.980469,53 a 30,9.9999997 0 0 1 -1.03711,0.556641 30,9.9999997 0 0 1 -1.142578,0.53125 30,9.9999997 0 0 1 -1.246093,0.505859 30,9.9999997 0 0 1 -1.341797,0.476562 30,9.9999997 0 0 1 -1.431641,0.447266 30,9.9999997 0 0 1 -1.517578,0.416016 30,9.9999997 0 0 1 -1.595703,0.380859 A 30,9.9999997 0 0 1 45,56.660156 a 30,9.9999997 0 0 1 -1.730469,0.308594 30,9.9999997 0 0 1 -1.789062,0.269531 30,9.9999997 0 0 1 -1.837891,0.230469 30,9.9999997 0 0 1 -1.878906,0.191406 30,9.9999997 0 0 1 -1.910156,0.148438 30,9.9999997 0 0 1 -1.9375,0.105468 30,9.9999997 0 0 1 -1.953125,0.06445 A 30,9.9999997 0 0 1 30,58 30,9.9999997 0 0 1 28.037109,57.978516 30,9.9999997 0 0 1 26.083984,57.914062 30,9.9999997 0 0 1 24.146484,57.808594 30,9.9999997 0 0 1 22.236328,57.660156 30,9.9999997 0 0 1 20.357422,57.46875 30,9.9999997 0 0 1 18.519531,57.238281 30,9.9999997 0 0 1 16.730469,56.96875 30,9.9999997 0 0 1 15,56.660156 30,9.9999997 0 0 1 13.332031,56.314453 30,9.9999997 0 0 1 11.736328,55.933594 30,9.9999997 0 0 1 10.21875,55.517578 30,9.9999997 0 0 1 8.7871094,55.070312 30,9.9999997 0 0 1 7.4453125,54.59375 30,9.9999997 0 0 1 6.1992188,54.087891 30,9.9999997 0 0 1 5.0566406,53.556641 30,9.9999997 0 0 1 4.0195312,53 30,9.9999997 0 0 1 3.09375,52.423828 30,9.9999997 0 0 1 2.2832031,51.826172 30,9.9999997 0 0 1 1.5917969,51.214844 30,9.9999997 0 0 1 1.0214844,50.587891 30,9.9999997 0 0 1 0.57617188,49.951172 30,9.9999997 0 0 1 0.25585938,49.304688 30,9.9999997 0 0 1 0.06445312,48.654297 30,9.9999997 0 0 1 0,48 Z"
         transform="scale(0.26458333)" />
      <path
         id="path8179"
         style="fill:#f2dfd9;fill-opacity:1;stroke-width:1.02587"
         d="m 0,32 v 14 a 30,9.9999993 0 0 0 9.5,7.291016 V 39.298828 A 30,9.9999994 0 0 1 8.7871094,39.070312 30,9.9999994 0 0 1 7.4453125,38.59375 30,9.9999994 0 0 1 6.1992188,38.087891 30,9.9999994 0 0 1 5.0566406,37.556641 30,9.9999994 0 0 1 4.0195312,37 30,9.9999994 0 0 1 3.09375,36.423828 30,9.9999994 0 0 1 2.2832031,35.826172 30,9.9999994 0 0 1 1.5917969,35.214844 30,9.9999994 0 0 1 1.0214844,34.587891 30,9.9999994 0 0 1 0.57617188,33.951172 30,9.9999994 0 0 1 0.25585938,33.304688 30,9.9999994 0 0 1 0.06445312,32.654297 30,9.9999994 0 0 1 0,32 Z m 60,0 a 30,9.9999994 0 0 1 -0.06445,0.654297 30,9.9999994 0 0 1 -0.191406,0.650391 30,9.9999994 0 0 1 -0.320313,0.646484 30,9.9999994 0 0 1 -0.445312,0.636719 30,9.9999994 0 0 1 -0.570313,0.626953 A 30,9.9999994 0 0 1 57.7168,35.826172 30,9.9999994 0 0 1 56.90625,36.423828 30,9.9999994 0 0 1 55.980469,37 a 30,9.9999994 0 0 1 -1.03711,0.556641 30,9.9999994 0 0 1 -1.142578,0.53125 30,9.9999994 0 0 1 -1.246093,0.505859 30,9.9999994 0 0 1 -1.341797,0.476562 A 30,9.9999994 0 0 1 50.5,39.298828 V 53.296875 A 30,9.9999993 0 0 0 60,46 Z m -48.5,7.871094 v 13.99414 a 30,9.9999993 0 0 0 17.5,2.125 V 41.994141 a 30,9.9999994 0 0 1 -0.962891,-0.01563 30,9.9999994 0 0 1 -1.953125,-0.06445 30,9.9999994 0 0 1 -1.9375,-0.105468 A 30,9.9999994 0 0 1 22.236328,41.660156 30,9.9999994 0 0 1 20.357422,41.46875 30,9.9999994 0 0 1 18.519531,41.238281 30,9.9999994 0 0 1 16.730469,40.96875 30,9.9999994 0 0 1 15,40.660156 30,9.9999994 0 0 1 13.332031,40.314453 30,9.9999994 0 0 1 11.736328,39.933594 30,9.9999994 0 0 1 11.5,39.871094 Z m 37,0 a 30,9.9999994 0 0 1 -0.236328,0.0625 30,9.9999994 0 0 1 -1.595703,0.380859 A 30,9.9999994 0 0 1 45,40.660156 a 30,9.9999994 0 0 1 -1.730469,0.308594 30,9.9999994 0 0 1 -1.789062,0.269531 30,9.9999994 0 0 1 -1.837891,0.230469 30,9.9999994 0 0 1 -1.878906,0.191406 30,9.9999994 0 0 1 -1.910156,0.148438 30,9.9999994 0 0 1 -1.9375,0.105468 30,9.9999994 0 0 1 -1.953125,0.06445 A 30,9.9999994 0 0 1 31,41.994141 v 14 a 30,9.9999993 0 0 0 17.5,-2.126953 z"
         transform="scale(0.26458333)" />
      <path
         id="path6788"
         style="fill:#f2dfd9;fill-opacity:1;stroke-width:1.03999"
         d="M 30,20 A 30,9.9999994 0 0 0 0,30 30,9.9999994 0 0 0 30,40 30,9.9999994 0 0 0 60,30 30,9.9999994 0 0 0 41.380859,20.748047 l -1.28125,0.783203 -0.945312,1.892578 A 27.000001,6.9999998 0 0 1 57,30 27.000001,6.9999998 0 0 1 30,37 27.000001,6.9999998 0 0 1 3,30 27.000001,6.9999998 0 0 1 26.0625,23.076172 l 5.023438,-3.06836 A 30,9.9999994 0 0 0 30,20 Z"
         transform="scale(0.26458333)" />
      <path
         id="path6211-51"
         style="fill:#f2dfd9;fill-opacity:1;stroke-width:0.23737"
         d="M 5.9712786,6.8255677 A 0.6614583,0.6614583 0 0 0 5.7517121,7.7348775 0.6614583,0.6614583 0 0 0 6.6610219,7.9544451 0.6614583,0.6614583 0 0 0 6.9709131,7.3000088 L 14.130463,2.9255312 13.854566,2.4739809 6.6954565,6.8481886 A 0.6614583,0.6614583 0 0 0 5.9712786,6.8255677 Z" />
      <path
         id="path6211-51-8"
         style="fill:#f2dfd9;fill-opacity:1;stroke-width:0.23737"
         d="M 7.664243,8.3365171 A 0.6614583,0.6614583 0 0 0 7.9603342,9.2238635 0.6614583,0.6614583 0 0 0 8.8476812,8.9277732 0.6614583,0.6614583 0 0 0 8.7633343,8.2086036 L 12.513191,0.70302006 12.039816,0.46651818 8.2901897,7.9716391 A 0.6614583,0.6614583 0 0 0 7.664243,8.3365171 Z" />
    </g>
    <g
       id="g20529"
       transform="rotate(-3.2522774,1872.1344,-89.289763)">
      <path
         id="path12786"
         style="fill:#f2dfd9;fill-opacity:1;stroke-width:0.957426"
         d="m 68,15 a 28,4.9999994 0 0 1 -28,5 h -4 v -2 h -2 v 2 h -3 v -2 h -2 v 2 h -3 v -2 h -2 v 2 H 20 A 9.9999993,9.9999993 0 0 0 10,30 9.9999993,9.9999993 0 0 0 20,40 H 40 A 9.9999993,9.9999993 0 0 0 50,30 9.9999993,9.9999993 0 0 0 49.587891,27.212891 26,3 0 0 0 44.023438,27.037109 4.9999994,4.9999994 0 0 1 45,30 4.9999994,4.9999994 0 0 1 40,35 h -4 v -8 h -2 v 8 h -3 v -8 h -2 v 8 h -3 v -8 h -2 v 8 h -4 a 4.9999994,4.9999994 0 0 1 -5,-5 4.9999994,4.9999994 0 0 1 5,-5 h 20 a 28,4.9999995 0 0 1 8.800781,0.253906 9.9999993,9.9999993 0 0 0 0,-0.002 28,4.9999995 0 0 1 2.203125,0.150391 28,4.9999995 0 0 1 3.353516,0.304687 28,4.9999995 0 0 1 0.0039,0 28,4.9999995 0 0 1 0.111328,0.01172 28,4.9999995 0 0 1 0.953125,0.107422 28,4.9999995 0 0 1 1.03125,0.128906 28,4.9999995 0 0 1 1.964844,0.279297 28,4.9999995 0 0 1 1.816406,0.310547 28,4.9999995 0 0 1 2.414063,0.515625 28,4.9999995 0 0 1 0.04883,0.01172 28,4.9999995 0 0 1 1.335937,0.363281 28,4.9999995 0 0 1 1.189453,0.394531 28,4.9999995 0 0 1 0.02734,0.0098 28,4.9999995 0 0 1 0.960938,0.402344 28,4.9999995 0 0 1 0.01758,0.0078 28,4.9999995 0 0 1 0.396484,0.205078 28,4.9999995 0 0 1 0.361328,0.214844 28,4.9999995 0 0 1 0.283204,0.199219 28,4.9999995 0 0 1 0.02539,0.01758 28,4.9999995 0 0 1 0.01953,0.01758 28,4.9999995 0 0 1 0.228516,0.199219 28,4.9999995 0 0 1 0.0039,0.0039 28,4.9999995 0 0 1 0.0039,0.0039 28,4.9999995 0 0 1 0.191406,0.216797 28,4.9999995 0 0 1 0.0039,0.0039 28,4.9999995 0 0 1 0.21875,0.433594 28,4.9999995 0 0 1 0.0039,0.0098 28,4.9999995 0 0 1 0,0.002 28,4.9999995 0 0 1 0,0.002 28,4.9999995 0 0 1 0,0.002 A 28,4.9999995 0 0 1 68,30 h 2 V 15 Z"
         transform="scale(0.26458333)" />
      <path
         id="rect15867"
         style="fill:#f2dfd9;fill-opacity:1;stroke-width:1.00647"
         d="m 0,17.5 v 2.5 5 2.5 H 2 A 2.4999999,2.4999999 0 0 1 4.5,25 H 9.1152344 A 12,12 0 0 1 13.390625,20 H 4.5 A 2.4999999,2.4999999 0 0 1 2,17.5 Z"
         transform="scale(0.26458333)" />
      <rect
         style="fill:#f2dfd9;fill-opacity:1;stroke-width:0.324047"
         id="rect19058"
         width="0.52916664"
         height="3.96875"
         x="17.991667"
         y="3.96875" />
    </g>
  </g>
</svg>
